<svg width="56" height="34" viewBox="0 0 56 34" fill="none" xmlns="http://www.w3.org/2000/svg">
    <path fill-rule="evenodd" clip-rule="evenodd"
        d="M34.0378 11.3331H21.1417C20.9334 11.3331 20.7336 11.4159 20.5863 11.5632C20.439 11.7105 20.3562 11.9102 20.3562 12.1185V22.3289H18V23.8998C18 24.1081 18.0827 24.3078 18.23 24.4551C18.3773 24.6024 18.5771 24.6852 18.7854 24.6852H36.0645C36.2728 24.6852 36.4726 24.6024 36.6199 24.4551C36.7672 24.3078 36.8499 24.1081 36.8499 23.8998V22.3289H34.4937L34.5 12L33.7083 12.0027V15.3364V22.3289H21.1417V12.1185L34 12C33.8034 11.7861 34.5 12 34.0378 11.3331Z"
        fill="#132A3A" />
    <path opacity="0.6" fill-rule="evenodd" clip-rule="evenodd"
        d="M30.3623 12.9039H21.927V21.5435H32.9228L32.9779 12.9039L32.5 14C33 12.5 32.9779 12.9039 30.422 15.0913L32.9779 12.9039H30.3639H30.3623Z"
        fill="#132A3A" />
</svg>
    