<svg width="24" height="24" viewBox="0 0 24 24" fill="none" xmlns="http://www.w3.org/2000/svg">
    <path fill-rule="evenodd" clip-rule="evenodd"
        d="M18.0378 6.33313H5.14166C4.93335 6.33313 4.73358 6.41588 4.58629 6.56317C4.43899 6.71047 4.35624 6.91024 4.35624 7.11854V17.3289H2V18.8998C2 19.1081 2.08275 19.3078 2.23004 19.4551C2.37734 19.6024 2.57711 19.6852 2.78541 19.6852H20.0645C20.2728 19.6852 20.4726 19.6024 20.6199 19.4551C20.7672 19.3078 20.8499 19.1081 20.8499 18.8998V17.3289H18.4937L18.5 7L17.7083 7.00269V10.3364V17.3289H5.14166V7.11854L18 7C17.8034 6.78614 18.5 7 18.0378 6.33313Z"
        fill="white" />
    <path opacity="0.6" fill-rule="evenodd" clip-rule="evenodd"
        d="M14.3623 7.90393H5.927V16.5435H16.9228L16.9779 7.90393L16.5 9C17 7.5 16.9779 7.90393 14.422 10.0913L16.9779 7.90393H14.3639H14.3623Z"
        fill="white" />
</svg>
    