<svg width="42" height="49" viewBox="0 0 42 49" fill="none" xmlns="http://www.w3.org/2000/svg">
    <g clip-path="url(#clip0_1582_226604)">
        <path
            d="M10.1823 9.22957L18.3981 4.25552C18.6265 4.35317 18.8729 4.40672 19.1314 4.40672C20.2072 4.40672 21.0846 3.48688 21.0846 2.35914C21.0846 1.23139 20.2072 0.311554 19.1314 0.311554C18.0555 0.311554 17.1841 1.22509 17.1781 2.34969L8.69183 7.48755C7.99767 7.90966 7.56494 8.69405 7.56494 9.53828V20.4755C7.56494 21.3166 7.99767 22.1041 8.69484 22.5263L18.2509 28.3099C18.3831 28.3887 18.5334 28.4328 18.6836 28.4328C18.8339 28.4328 18.9841 28.3918 19.1163 28.3099C19.3868 28.1461 19.5491 27.85 19.5491 27.5224V27.2294C19.5491 26.7506 19.3026 26.3064 18.909 26.067L10.1823 20.7842C9.91489 20.6204 9.7466 20.318 9.7466 19.9936V10.0202C9.7466 9.69579 9.91489 9.39022 10.1823 9.22957ZM17.9594 1.88032C18.1427 1.38575 18.5995 1.03923 19.1344 1.03923C19.2005 1.03923 19.2636 1.04553 19.3267 1.05498C19.4048 1.06758 19.4799 1.08649 19.5491 1.11484C20.0419 1.29439 20.3935 1.78581 20.3935 2.36229C20.3935 2.99546 19.9668 3.52784 19.3988 3.65384C19.3147 3.67274 19.2245 3.68219 19.1344 3.68219C18.4372 3.68219 17.8722 3.08997 17.8722 2.35914C17.8722 2.18903 17.9053 2.02837 17.9594 1.88032Z"
            fill="#132A3A" />
        <path
            d="M32.9304 8.11441L23.3684 2.32763C23.2332 2.24572 23.0829 2.20477 22.9297 2.20477C22.7764 2.20477 22.6262 2.24887 22.4909 2.32763C22.2175 2.49458 22.0522 2.7907 22.0522 3.12461V3.53098C22.0522 3.92789 22.2565 4.29646 22.5841 4.49492L31.4399 9.85329C31.6984 10.0076 31.8576 10.2975 31.8576 10.6093V20.6267C31.8576 20.9386 31.6984 21.2284 31.4399 21.3828L23.4345 26.1079C23.1671 25.963 22.8635 25.8811 22.545 25.8811C21.4692 25.8811 20.5917 26.801 20.5917 27.9287C20.5917 29.0565 21.4692 29.9763 22.545 29.9763C23.5217 29.9763 24.333 29.2234 24.4773 28.2406L32.9334 23.1216C33.6186 22.7058 34.0423 21.9372 34.0423 21.1087V10.1273C34.0393 9.29886 33.6156 8.52708 32.9304 8.11441ZM23.4165 28.8832C23.2692 29.0313 23.0919 29.1415 22.8906 29.2014C22.7794 29.236 22.6622 29.2518 22.542 29.2518C22.53 29.2518 22.515 29.2518 22.5029 29.2518C21.8238 29.2297 21.2799 28.647 21.2799 27.9319C21.2799 27.201 21.8448 26.6088 22.542 26.6088C22.6081 26.6088 22.6742 26.6151 22.7373 26.6246C23.3414 26.7222 23.8041 27.2703 23.8041 27.9319C23.8041 28.3067 23.6569 28.6438 23.4165 28.8832Z"
            fill="#132A3A" />
        <path
            d="M26.4936 16.7521L11.6938 20.8661C11.4354 20.9386 11.1889 20.4314 11.3332 20.1227L11.6728 19.3887C11.9432 18.8028 12.3549 18.4122 12.8417 18.2767L27.5334 14.1942C27.7918 14.1217 28.0382 14.6289 27.894 14.9376L27.4973 15.8007C27.2629 16.3016 26.9113 16.6387 26.4936 16.7521Z"
            fill="#132A3A" />
        <path
            d="M26.6018 20.4787L17.4394 23.024C17.2802 23.0681 17.0758 22.5515 17.1389 22.2617L17.2922 21.5812C17.4124 21.0363 17.6438 20.696 17.9473 20.6141L27.0436 18.0877C27.2028 18.0436 27.4072 18.5603 27.3441 18.8501L27.1668 19.6502C27.0586 20.1164 26.8603 20.4062 26.6018 20.4787Z"
            fill="#132A3A" />
        <path
            d="M24.2309 10.6881L15.0685 13.2334C14.9092 13.2775 14.7049 12.7608 14.768 12.471L14.9212 11.7906C15.0414 11.2456 15.2728 10.9054 15.5763 10.8235L24.6726 8.29712C24.8319 8.25301 25.0362 8.76963 24.9731 9.05945L24.7958 9.85958C24.6846 10.3258 24.4893 10.6156 24.2309 10.6881Z"
            fill="#132A3A" />
        <path
            d="M29.1561 12.5655L14.3593 16.6765C14.1008 16.7489 13.8544 16.2417 13.9987 15.933L14.3382 15.1991C14.6087 14.6131 15.0204 14.2225 15.5072 14.0871L30.1988 10.0045C30.4573 9.93204 30.7037 10.4392 30.5595 10.7479L30.1628 11.6111C29.9284 12.1151 29.5768 12.449 29.1561 12.5655Z"
            fill="#132A3A" />
        <path
            d="M6.07071 36.9889H8.53013V41.1335V48.5253H6.07071V47.6768C5.96175 47.9705 5.23015 48.6885 3.98488 48.6885C2.13253 48.6885 0 47.3015 0 44.2664C0 41.3456 2.13253 39.8934 3.98488 39.8934C5.23015 39.8934 5.96175 40.644 6.07071 40.8235V36.9889ZM4.3429 46.4204C5.35468 46.4204 6.17968 45.6861 6.17968 44.2664C6.17968 42.8958 5.35468 42.1615 4.3429 42.1615C3.28441 42.1615 2.38159 42.9121 2.38159 44.2664C2.38159 45.6698 3.28441 46.4204 4.3429 46.4204ZM14.1339 39.8934C15.9706 39.8934 18.539 41.3456 18.0253 45.1802H12.3749C12.6551 46.0614 13.3867 46.5183 14.3674 46.5183C15.3636 46.5183 15.6749 46.2898 16.2353 46.0451L17.5895 47.4157C16.8735 48.15 15.9084 48.6885 14.274 48.6885C12.266 48.6885 9.8688 47.2362 9.8688 44.3154C9.8688 41.3456 12.2971 39.8934 14.1339 39.8934ZM14.1339 42.0962C13.4334 42.0962 12.7174 42.5205 12.406 43.369H15.8461C15.5971 42.5205 14.8343 42.0962 14.1339 42.0962ZM25.2635 48.5253L23.5824 46.0451L21.9168 48.5253H19.0994L22.1659 44.1685L19.4107 40.0402H22.197L23.5824 42.3084L24.9833 40.0402H27.7696L24.9989 44.1685L28.0809 48.5253H25.2635ZM31.8012 36.9889V48.5253H29.3418V36.9889H31.8012ZM39.2106 40.0402H41.67V48.5253H39.2106V47.6768C39.1016 47.9705 38.37 48.6885 37.1247 48.6885C35.2724 48.6885 33.1399 47.3015 33.1399 44.2664C33.1399 41.3456 35.2724 39.8934 37.1247 39.8934C38.37 39.8934 39.1016 40.644 39.2106 40.8235V40.0402ZM37.4828 46.4204C38.4945 46.4204 39.3195 45.6861 39.3195 44.2664C39.3195 42.8958 38.4945 42.1615 37.4828 42.1615C36.4243 42.1615 35.5215 42.9121 35.5215 44.2664C35.5215 45.6698 36.4243 46.4204 37.4828 46.4204Z"
            fill="#10D48E" />
    </g>
    <defs>
        <clipPath id="clip0_1582_226604">
            <rect width="41.67" height="48.3769" fill="white" transform="translate(0 0.311554)" />
        </clipPath>
    </defs>
</svg>
    