<svg width="24" height="24" viewBox="0 0 24 24" fill="none" xmlns="http://www.w3.org/2000/svg">
    <path fill-rule="evenodd" clip-rule="evenodd"
        d="M20.3356 3.00012C20.7779 3.00512 21.1939 3.18008 21.5069 3.49281C21.8251 3.81148 22 4.23426 22 4.68375C22 5.11894 21.8343 5.53195 21.5336 5.84668L12.6004 15.1893C12.499 14.8754 12.363 14.5712 12.192 14.2839C11.6311 13.341 10.773 12.6964 9.76844 12.4403L19.1533 3.4666C19.4687 3.1652 19.881 3 20.3162 3L20.3356 3.00012ZM8.75633 13.4876C8.80351 13.4876 8.85074 13.4886 8.89797 13.4905C11.1127 13.5832 12.2503 16.1126 11.3273 17.9963C10.4866 19.7123 8.43246 20.3605 6.68848 20.3605C6.63246 20.3605 6.57687 20.3598 6.52156 20.3585C4.98125 20.3216 2.6323 19.6374 2 17.9663C3.08574 17.6623 4.17969 17.2165 4.89078 16.3048C5.07765 16.0652 5.23639 15.8179 5.39287 15.5741C5.71128 15.078 6.02036 14.5965 6.5382 14.2239C7.17894 13.763 7.96441 13.4876 8.75633 13.4876Z"
        fill="#132A3A" />
</svg>
    