<svg width="24" height="24" viewBox="0 0 24 24" fill="none" xmlns="http://www.w3.org/2000/svg">
    <path fill-rule="evenodd" clip-rule="evenodd"
        d="M5 3.11111C5 2.81643 5.11706 2.53381 5.32544 2.32544C5.53381 2.11706 5.81643 2 6.11111 2H17.2222C17.5169 2 17.7995 2.11706 18.0079 2.32544C18.2163 2.53381 18.3333 2.81643 18.3333 3.11111V20.8889C18.3333 21.1836 18.2163 21.4662 18.0079 21.6746C17.7995 21.8829 17.5169 22 17.2222 22H6.11111C5.81643 22 5.53381 21.8829 5.32544 21.6746C5.11706 21.4662 5 21.1836 5 20.8889V3.11111ZM10.5556 19.7778C10.5556 19.4831 10.6726 19.2005 10.881 18.9921C11.0894 18.7837 11.372 18.6667 11.6667 18.6667C11.9614 18.6667 12.244 18.7837 12.4523 18.9921C12.6607 19.2005 12.7778 19.4831 12.7778 19.7778C12.7778 20.0725 12.6607 20.3551 12.4523 20.5635C12.244 20.7718 11.9614 20.8889 11.6667 20.8889C11.372 20.8889 11.0894 20.7718 10.881 20.5635C10.6726 20.3551 10.5556 20.0725 10.5556 19.7778ZM17.2222 3.11111H6.11111V17.5556H17.2222V3.11111Z"
        fill="white" />
    <path opacity="0.6" d="M7.22217 4.22223H16.1111V16.4445H7.22217V4.22223Z" fill="white" />
</svg>
    