<svg width="56" height="34" viewBox="0 0 56 34" fill="none" xmlns="http://www.w3.org/2000/svg">
    <path fill-rule="evenodd" clip-rule="evenodd"
        d="M19.1111 23.3333C18.8164 23.3333 18.5338 23.2163 18.3254 23.0079C18.1171 22.7995 18 22.5169 18 22.2222V11.1111C18 10.8164 18.1171 10.5338 18.3254 10.3254C18.5338 10.1171 18.8164 10 19.1111 10H36.8889C37.1836 10 37.4662 10.1171 37.6746 10.3254C37.8829 10.5338 38 10.8164 38 11.1111V22.2222C38 22.5169 37.8829 22.7995 37.6746 23.0079C37.4662 23.2163 37.1836 23.3333 36.8889 23.3333H19.1111ZM35.7778 17.7778C35.4831 17.7778 35.2005 17.6607 34.9921 17.4523C34.7837 17.244 34.6667 16.9614 34.6667 16.6667C34.6667 16.372 34.7837 16.0894 34.9921 15.881C35.2005 15.6726 35.4831 15.5556 35.7778 15.5556C36.0725 15.5556 36.3551 15.6726 36.5635 15.881C36.7718 16.0894 36.8889 16.372 36.8889 16.6667C36.8889 16.9614 36.7718 17.244 36.5635 17.4523C36.3551 17.6607 36.0725 17.7778 35.7778 17.7778ZM19.1111 11.1111V22.2222H33.5556V11.1111H19.1111Z"
        fill="#0D1D29" />
    <path opacity="0.6" d="M20.2222 21.1111V12.2222H32.4444V21.1111H20.2222Z" fill="#0D1D29" />
</svg>
    