<svg width="24" height="24" viewBox="0 0 24 24" fill="none" xmlns="http://www.w3.org/2000/svg">
    <path fill-rule="evenodd" clip-rule="evenodd"
        d="M3.11111 18.3333C2.81643 18.3333 2.53381 18.2163 2.32544 18.0079C2.11706 17.7995 2 17.5169 2 17.2222V6.11111C2 5.81643 2.11706 5.53381 2.32544 5.32544C2.53381 5.11706 2.81643 5 3.11111 5H20.8889C21.1836 5 21.4662 5.11706 21.6746 5.32544C21.8829 5.53381 22 5.81643 22 6.11111V17.2222C22 17.5169 21.8829 17.7995 21.6746 18.0079C21.4662 18.2163 21.1836 18.3333 20.8889 18.3333H3.11111ZM19.7778 12.7778C19.4831 12.7778 19.2005 12.6607 18.9921 12.4523C18.7837 12.244 18.6667 11.9614 18.6667 11.6667C18.6667 11.372 18.7837 11.0894 18.9921 10.881C19.2005 10.6726 19.4831 10.5556 19.7778 10.5556C20.0725 10.5556 20.3551 10.6726 20.5635 10.881C20.7718 11.0894 20.8889 11.372 20.8889 11.6667C20.8889 11.9614 20.7718 12.244 20.5635 12.4523C20.3551 12.6607 20.0725 12.7778 19.7778 12.7778ZM3.11111 6.11111V17.2222H17.5556V6.11111H3.11111Z"
        fill="white" />
    <path opacity="0.6" d="M4.22217 16.1111V7.22223H16.4444V16.1111H4.22217Z" fill="white" />
</svg>
    