<svg width="56" height="34" viewBox="0 0 56 34" fill="none" xmlns="http://www.w3.org/2000/svg">
    <path fill-rule="evenodd" clip-rule="evenodd"
        d="M21 8.11111C21 7.81643 21.1171 7.53381 21.3254 7.32544C21.5338 7.11706 21.8164 7 22.1111 7H33.2222C33.5169 7 33.7995 7.11706 34.0079 7.32544C34.2163 7.53381 34.3333 7.81643 34.3333 8.11111V25.8889C34.3333 26.1836 34.2163 26.4662 34.0079 26.6746C33.7995 26.8829 33.5169 27 33.2222 27H22.1111C21.8164 27 21.5338 26.8829 21.3254 26.6746C21.1171 26.4662 21 26.1836 21 25.8889V8.11111ZM26.5556 24.7778C26.5556 24.4831 26.6726 24.2005 26.881 23.9921C27.0894 23.7837 27.372 23.6667 27.6667 23.6667C27.9614 23.6667 28.244 23.7837 28.4523 23.9921C28.6607 24.2005 28.7778 24.4831 28.7778 24.7778C28.7778 25.0725 28.6607 25.3551 28.4523 25.5635C28.244 25.7718 27.9614 25.8889 27.6667 25.8889C27.372 25.8889 27.0894 25.7718 26.881 25.5635C26.6726 25.3551 26.5556 25.0725 26.5556 24.7778ZM33.2222 8.11111H22.1111V22.5556H33.2222V8.11111Z"
        fill="#0D1D29" />
    <path opacity="0.6" d="M23.2222 9.22223H32.1111V21.4445H23.2222V9.22223Z" fill="#0D1D29" />
</svg>
    