<svg width="18" height="19" viewBox="0 0 18 19" fill="none" xmlns="http://www.w3.org/2000/svg">
    <g clip-path="url(#clip0_1582_222840)">
        <path
            d="M9.00001 18.5C10.079 18.5 11.0082 17.8482 11.4159 16.918H6.58411C6.99181 17.8482 7.92103 18.5 9.00001 18.5Z"
            fill="#132A3A" />
        <path
            d="M14.4492 9.2139V8.05859C14.4492 5.60391 12.8176 3.5234 10.582 2.84387V2.08203C10.582 1.2097 9.87231 0.5 8.99998 0.5C8.12765 0.5 7.41795 1.2097 7.41795 2.08203V2.84387C5.18236 3.5234 3.55076 5.60388 3.55076 8.05859V9.2139C3.55076 11.3701 2.72888 13.4146 1.23653 14.9709C1.09028 15.1235 1.04918 15.3485 1.13208 15.5428C1.21498 15.7372 1.40588 15.8633 1.61717 15.8633H16.3828C16.5941 15.8633 16.7849 15.7372 16.8678 15.5428C16.9507 15.3485 16.9096 15.1235 16.7634 14.9709C15.2711 13.4146 14.4492 11.3701 14.4492 9.2139ZM9.52732 2.63497C9.35376 2.61823 9.17787 2.60938 8.99998 2.60938C8.82209 2.60938 8.6462 2.61823 8.47264 2.63497V2.08203C8.47264 1.79125 8.7092 1.55469 8.99998 1.55469C9.29076 1.55469 9.52732 1.79125 9.52732 2.08203V2.63497Z"
            fill="#132A3A" />
        <path
            d="M15.8554 8.0586C15.8554 8.34983 16.0915 8.58594 16.3828 8.58594C16.674 8.58594 16.9101 8.34983 16.9101 8.0586C16.9101 5.94571 16.0873 3.95927 14.5933 2.46524C14.3874 2.25933 14.0535 2.25929 13.8475 2.46524C13.6416 2.67118 13.6416 3.00506 13.8475 3.21101C15.1424 4.50585 15.8554 6.22741 15.8554 8.0586Z"
            fill="#132A3A" />
        <path
            d="M1.61719 8.58595C1.90842 8.58595 2.14453 8.34984 2.14453 8.0586C2.14453 6.22746 2.85764 4.50589 4.15244 3.21105C4.35839 3.0051 4.35839 2.67123 4.15244 2.46528C3.94653 2.25934 3.61262 2.25934 3.40668 2.46528C1.91264 3.95932 1.08984 5.94571 1.08984 8.0586C1.08984 8.34984 1.32595 8.58595 1.61719 8.58595Z"
            fill="#132A3A" />
    </g>
    <defs>
        <clipPath id="clip0_1582_222840">
            <rect width="18" height="18" fill="white" transform="translate(0 0.5)" />
        </clipPath>
    </defs>
</svg>
    