<svg width="24" height="24" viewBox="0 0 24 24" fill="none" xmlns="http://www.w3.org/2000/svg">
    <path fill-rule="evenodd" clip-rule="evenodd"
        d="M3 3.11111C3 2.81643 3.11706 2.53381 3.32544 2.32544C3.53381 2.11706 3.81643 2 4.11111 2H19.6667C19.9614 2 20.244 2.11706 20.4523 2.32544C20.6607 2.53381 20.7778 2.81643 20.7778 3.11111V20.8889C20.7778 21.1836 20.6607 21.4662 20.4523 21.6746C20.244 21.8829 19.9614 22 19.6667 22H4.11111C3.81643 22 3.53381 21.8829 3.32544 21.6746C3.11706 21.4662 3 21.1836 3 20.8889V3.11111ZM10.7778 19.7778C10.7778 19.4831 10.8948 19.2005 11.1032 18.9921C11.3116 18.7837 11.5942 18.6667 11.8889 18.6667C12.1836 18.6667 12.4662 18.7837 12.6746 18.9921C12.8829 19.2005 13 19.4831 13 19.7778C13 20.0725 12.8829 20.3551 12.6746 20.5635C12.4662 20.7718 12.1836 20.8889 11.8889 20.8889C11.5942 20.8889 11.3116 20.7718 11.1032 20.5635C10.8948 20.3551 10.7778 20.0725 10.7778 19.7778ZM19.6667 3.11111H4.11111V17.5556H19.6667V3.11111Z"
        fill="white" />
    <path opacity="0.6" d="M5.22217 4.22223H18.5555V16.4445H5.22217V4.22223Z" fill="white" />
</svg>
    