<svg width="56" height="34" viewBox="0 0 56 34" fill="none" xmlns="http://www.w3.org/2000/svg">
    <path fill-rule="evenodd" clip-rule="evenodd"
        d="M19 8.11111C19 7.81643 19.1171 7.53381 19.3254 7.32544C19.5338 7.11706 19.8164 7 20.1111 7H35.6667C35.9614 7 36.244 7.11706 36.4523 7.32544C36.6607 7.53381 36.7778 7.81643 36.7778 8.11111V25.8889C36.7778 26.1836 36.6607 26.4662 36.4523 26.6746C36.244 26.8829 35.9614 27 35.6667 27H20.1111C19.8164 27 19.5338 26.8829 19.3254 26.6746C19.1171 26.4662 19 26.1836 19 25.8889V8.11111ZM26.7778 24.7778C26.7778 24.4831 26.8948 24.2005 27.1032 23.9921C27.3116 23.7837 27.5942 23.6667 27.8889 23.6667C28.1836 23.6667 28.4662 23.7837 28.6746 23.9921C28.8829 24.2005 29 24.4831 29 24.7778C29 25.0725 28.8829 25.3551 28.6746 25.5635C28.4662 25.7718 28.1836 25.8889 27.8889 25.8889C27.5942 25.8889 27.3116 25.7718 27.1032 25.5635C26.8948 25.3551 26.7778 25.0725 26.7778 24.7778ZM35.6667 8.11111H20.1111V22.5556H35.6667V8.11111Z"
        fill="#0D1D29" />
    <path opacity="0.6" d="M21.2222 9.22223H34.5555V21.4445H21.2222V9.22223Z" fill="#0D1D29" />
</svg>
    