<svg width="10" height="10" viewBox="0 0 10 10" fill="none" xmlns="http://www.w3.org/2000/svg">
    <path
        d="M5.91615 5.00006L9.80995 1.10614C10.0634 0.852861 10.0634 0.443337 9.80995 0.190054C9.55667 -0.0632292 9.14714 -0.0632292 8.89386 0.190054L4.99994 4.08397L1.10614 0.190054C0.85274 -0.0632292 0.443335 -0.0632292 0.190051 0.190054C-0.0633505 0.443337 -0.0633505 0.852861 0.190051 1.10614L4.08385 5.00006L0.190051 8.89398C-0.0633505 9.14726 -0.0633505 9.55679 0.190051 9.81007C0.316278 9.93641 0.482246 9.99988 0.648097 9.99988C0.813947 9.99988 0.979797 9.93641 1.10614 9.81007L4.99994 5.91615L8.89386 9.81007C9.0202 9.93641 9.18605 9.99988 9.3519 9.99988C9.51775 9.99988 9.6836 9.93641 9.80995 9.81007C10.0634 9.55679 10.0634 9.14726 9.80995 8.89398L5.91615 5.00006Z"
        fill="#132A3A" />
</svg>