<svg width="24" height="24" viewBox="0 0 24 24" fill="none" xmlns="http://www.w3.org/2000/svg">
    <path
        d="M20.25 22.3125H8.24999C7.70298 22.3125 7.17837 22.0952 6.79158 21.7084C6.40478 21.3216 6.18749 20.797 6.18749 20.25V19.9125C4.90787 19.616 3.7664 18.8949 2.94912 17.8666C2.13185 16.8383 1.68695 15.5635 1.68695 14.25C1.68695 12.9365 2.13185 11.6617 2.94912 10.6334C3.7664 9.60513 4.90787 8.88398 6.18749 8.5875V3.75C6.18749 3.20299 6.40478 2.67839 6.79158 2.2916C7.17837 1.9048 7.70298 1.6875 8.24999 1.6875H16.6275C16.8993 1.687 17.1686 1.74043 17.4196 1.84471C17.6707 1.94899 17.8985 2.10204 18.09 2.295L21.705 5.91C21.9025 6.10589 22.0582 6.33985 22.1626 6.59768C22.267 6.85552 22.318 7.13188 22.3125 7.41V20.25C22.3125 20.797 22.0952 21.3216 21.7084 21.7084C21.3216 22.0952 20.797 22.3125 20.25 22.3125ZM7.31249 20.0625V20.25C7.31249 20.4986 7.41126 20.7371 7.58707 20.9129C7.76289 21.0887 8.00135 21.1875 8.24999 21.1875H20.25C20.4986 21.1875 20.7371 21.0887 20.9129 20.9129C21.0887 20.7371 21.1875 20.4986 21.1875 20.25V8.0625H18C17.453 8.0625 16.9284 7.84521 16.5416 7.45841C16.1548 7.07162 15.9375 6.54701 15.9375 6V2.8125H8.24999C8.00135 2.8125 7.76289 2.91128 7.58707 3.08709C7.41126 3.26291 7.31249 3.50136 7.31249 3.75V8.4375H7.49999C9.04156 8.4375 10.52 9.04989 11.61 10.1399C12.7001 11.23 13.3125 12.7084 13.3125 14.25C13.3125 15.7916 12.7001 17.27 11.61 18.3601C10.52 19.4501 9.04156 20.0625 7.49999 20.0625H7.31249ZM7.49999 9.5625C6.57289 9.5625 5.66661 9.83742 4.89575 10.3525C4.1249 10.8676 3.52409 11.5996 3.1693 12.4562C2.81452 13.3127 2.72169 14.2552 2.90256 15.1645C3.08342 16.0738 3.52986 16.909 4.18542 17.5646C4.84098 18.2201 5.67621 18.6666 6.5855 18.8474C7.49479 19.0283 8.43729 18.9355 9.29381 18.5807C10.1503 18.2259 10.8824 17.6251 11.3975 16.8542C11.9126 16.0834 12.1875 15.1771 12.1875 14.25C12.1875 13.0068 11.6936 11.8145 10.8145 10.9354C9.93547 10.0564 8.74319 9.5625 7.49999 9.5625ZM17.0625 2.9175V6C17.0625 6.24864 17.1613 6.4871 17.3371 6.66292C17.5129 6.83873 17.7513 6.9375 18 6.9375H21.0825C21.0361 6.85236 20.978 6.7741 20.91 6.705L17.295 3.09C17.2259 3.02197 17.1476 2.96391 17.0625 2.9175ZM18.75 17.0625H15C14.8508 17.0625 14.7077 17.0032 14.6022 16.8978C14.4967 16.7923 14.4375 16.6492 14.4375 16.5C14.4375 16.3508 14.4967 16.2077 14.6022 16.1023C14.7077 15.9968 14.8508 15.9375 15 15.9375H18.75C18.8992 15.9375 19.0422 15.9968 19.1477 16.1023C19.2532 16.2077 19.3125 16.3508 19.3125 16.5C19.3125 16.6492 19.2532 16.7923 19.1477 16.8978C19.0422 17.0032 18.8992 17.0625 18.75 17.0625ZM6.37499 15.9375C6.23028 15.9264 6.09566 15.8591 5.99999 15.75C5.90774 15.6469 5.85675 15.5134 5.85675 15.375C5.85675 15.2366 5.90774 15.1031 5.99999 15L6.95999 14.04V12C6.95999 11.8508 7.01925 11.7077 7.12474 11.6023C7.23023 11.4968 7.3733 11.4375 7.52249 11.4375C7.67167 11.4375 7.81474 11.4968 7.92023 11.6023C8.02572 11.7077 8.08499 11.8508 8.08499 12V14.25C8.08486 14.3991 8.02551 14.5421 7.91999 14.6475L6.74999 15.75C6.65431 15.8591 6.51969 15.9264 6.37499 15.9375ZM18.75 14.0625H15.75C15.6008 14.0625 15.4577 14.0032 15.3522 13.8978C15.2467 13.7923 15.1875 13.6492 15.1875 13.5C15.1875 13.3508 15.2467 13.2077 15.3522 13.1023C15.4577 12.9968 15.6008 12.9375 15.75 12.9375H18.75C18.8992 12.9375 19.0422 12.9968 19.1477 13.1023C19.2532 13.2077 19.3125 13.3508 19.3125 13.5C19.3125 13.6492 19.2532 13.7923 19.1477 13.8978C19.0422 14.0032 18.8992 14.0625 18.75 14.0625ZM18.75 11.0625H15C14.8508 11.0625 14.7077 11.0032 14.6022 10.8978C14.4967 10.7923 14.4375 10.6492 14.4375 10.5C14.4375 10.3508 14.4967 10.2077 14.6022 10.1023C14.7077 9.99677 14.8508 9.9375 15 9.9375H18.75C18.8992 9.9375 19.0422 9.99677 19.1477 10.1023C19.2532 10.2077 19.3125 10.3508 19.3125 10.5C19.3125 10.6492 19.2532 10.7923 19.1477 10.8978C19.0422 11.0032 18.8992 11.0625 18.75 11.0625ZM13.5 8.0625H11.25C11.1008 8.0625 10.9577 8.00324 10.8522 7.89775C10.7467 7.79226 10.6875 7.64919 10.6875 7.5C10.6875 7.35082 10.7467 7.20775 10.8522 7.10226C10.9577 6.99677 11.1008 6.9375 11.25 6.9375H13.5C13.6492 6.9375 13.7922 6.99677 13.8977 7.10226C14.0032 7.20775 14.0625 7.35082 14.0625 7.5C14.0625 7.64919 14.0032 7.79226 13.8977 7.89775C13.7922 8.00324 13.6492 8.0625 13.5 8.0625Z"
        fill="#132A3A" />
</svg>
    