<svg width="24" height="24" viewBox="0 0 24 24" fill="none" xmlns="http://www.w3.org/2000/svg">
    <path
        d="M7.89966 4.17578C7.89966 2.97605 6.92361 2 5.72388 2C2.8374 2.11953 2.83822 6.2325 5.72388 6.35156C6.92365 6.35156 7.89966 5.37551 7.89966 4.17578Z"
        fill="#132A3A" />
    <path
        d="M9.44793 10.7448V10.0756C9.24277 5.13396 2.20332 5.13779 2 10.0755V10.7448C2 11.0684 2.26234 11.3307 2.58594 11.3307H8.86199C9.18559 11.3308 9.44793 11.0684 9.44793 10.7448Z"
        fill="#132A3A" />
    <path
        d="M20.4518 4.17578C20.4518 2.97605 19.4758 2 18.2761 2C15.3896 2.11953 15.3904 6.2325 18.2761 6.35156C19.4758 6.35156 20.4518 5.37551 20.4518 4.17578Z"
        fill="#132A3A" />
    <path
        d="M18.276 6.35156C16.2226 6.35156 14.5521 8.02215 14.5521 10.0755V10.7448C14.5521 11.0684 14.8144 11.3307 15.138 11.3307H21.414C21.7376 11.3307 22 11.0684 22 10.7448V10.0755C22 8.02215 20.3294 6.35156 18.276 6.35156V6.35156Z"
        fill="#132A3A" />
    <path
        d="M5.68229 12.6276C5.68229 12.5858 5.68307 12.5442 5.68385 12.5026H4.51198C4.46533 15.0143 5.68291 17.2836 7.56838 18.6654C7.73682 18.3079 7.94729 17.9739 8.19338 17.6698C6.66807 16.5165 5.68229 14.6873 5.68229 12.6276V12.6276Z"
        fill="#132A3A" />
    <path
        d="M9.41419 6.86177C10.9726 6.13193 13.0273 6.13193 14.5858 6.86177C14.8636 6.54306 15.182 6.26056 15.5328 6.02236C13.4588 4.85443 10.5412 4.85447 8.46716 6.02236C8.81794 6.26056 9.1363 6.5431 9.41419 6.86177V6.86177Z"
        fill="#132A3A" />
    <path
        d="M18.3161 12.5026C18.3616 14.5959 17.363 16.4974 15.8066 17.6698C16.0527 17.9739 16.2631 18.3079 16.4316 18.6654C18.317 17.2837 19.5347 15.0143 19.488 12.5026H18.3161Z"
        fill="#132A3A" />
    <path
        d="M14.1758 14.845C14.1758 13.6453 13.1998 12.6693 12.0001 12.6693C9.11358 12.7888 9.1144 16.9018 12.0001 17.0208C13.1998 17.0208 14.1758 16.0448 14.1758 14.845Z"
        fill="#132A3A" />
    <path
        d="M12 17.0208C9.94661 17.0208 8.27606 18.6914 8.27606 20.7448V21.4141C8.27606 21.7376 8.53841 22 8.862 22H15.1381C15.4616 22 15.724 21.7376 15.724 21.4141V20.7448C15.724 18.6914 14.0534 17.0208 12 17.0208Z"
        fill="#132A3A" />
</svg>
    