<svg width="24" height="24" viewBox="0 0 24 24" fill="none" xmlns="http://www.w3.org/2000/svg">
    <path fill-rule="evenodd" clip-rule="evenodd"
        d="M9.58187 12.375H4.54312C3.6925 12.375 3 11.6825 3 10.8319V4.54312C3 3.6925 3.6925 3 4.54312 3H9.58187C10.4325 3 11.125 3.6925 11.125 4.54312V10.8319C11.125 11.6825 10.4325 12.375 9.58187 12.375ZM4.54312 4.25C4.38125 4.25 4.25 4.38125 4.25 4.54312V10.8319C4.25 10.9938 4.38125 11.125 4.54312 11.125H9.58187C9.74375 11.125 9.875 10.9938 9.875 10.8319V4.54312C9.875 4.38125 9.74375 4.25 9.58187 4.25H4.54312ZM13.9181 9.875H18.9569C19.8075 9.875 20.5 9.1825 20.5 8.33187V4.54312C20.5 3.6925 19.8075 3 18.9569 3H13.9181C13.0675 3 12.375 3.6925 12.375 4.54312V8.33187C12.375 9.1825 13.0675 9.875 13.9181 9.875ZM13.625 4.54312C13.625 4.38125 13.7563 4.25 13.9181 4.25H18.9569C19.1187 4.25 19.25 4.38125 19.25 4.54312V8.33187C19.25 8.49375 19.1187 8.625 18.9569 8.625H13.9181C13.7563 8.625 13.625 8.49375 13.625 8.33187V4.54312ZM13.9181 20.5H18.9569C19.8075 20.5 20.5 19.8075 20.5 18.9569V12.6681C20.5 11.8175 19.8075 11.125 18.9569 11.125H13.9181C13.0675 11.125 12.375 11.8175 12.375 12.6681V18.9569C12.375 19.8075 13.0675 20.5 13.9181 20.5ZM13.625 12.6681C13.625 12.5063 13.7563 12.375 13.9181 12.375H18.9569C19.1187 12.375 19.25 12.5063 19.25 12.6681V18.9569C19.25 19.1187 19.1187 19.25 18.9569 19.25H13.9181C13.7563 19.25 13.625 19.1187 13.625 18.9569V12.6681ZM4.54312 20.5H9.58187C10.4325 20.5 11.125 19.8075 11.125 18.9569V15.1681C11.125 14.3175 10.4325 13.625 9.58187 13.625H4.54312C3.6925 13.625 3 14.3175 3 15.1681V18.9569C3 19.8075 3.6925 20.5 4.54312 20.5ZM4.25 15.1681C4.25 15.0063 4.38125 14.875 4.54312 14.875H9.58187C9.74375 14.875 9.875 15.0063 9.875 15.1681V18.9569C9.875 19.1187 9.74375 19.25 9.58187 19.25H4.54312C4.38125 19.25 4.25 19.1187 4.25 18.9569V15.1681Z"
        fill="#132A3A" />
</svg>
    