<svg width="24" height="24" viewBox="0 0 24 24" fill="none" xmlns="http://www.w3.org/2000/svg">
    <path
        d="M12 21C12.0007 21.5965 12.2379 22.1684 12.6598 22.5902C13.0816 23.0121 13.6535 23.2493 14.25 23.25H20.25C20.8465 23.2493 21.4184 23.0121 21.8402 22.5902C22.2621 22.1684 22.4993 21.5965 22.5 21V15C22.4993 14.4035 22.2621 13.8316 21.8402 13.4098C21.4184 12.9879 20.8465 12.7507 20.25 12.75H14.25C13.6535 12.7507 13.0816 12.9879 12.6598 13.4098C12.2379 13.8316 12.0007 14.4035 12 15V21ZM13.5 15C13.5 14.8011 13.579 14.6103 13.7197 14.4697C13.8603 14.329 14.0511 14.25 14.25 14.25H20.25C20.4489 14.25 20.6397 14.329 20.7803 14.4697C20.921 14.6103 21 14.8011 21 15V21C21 21.1989 20.921 21.3897 20.7803 21.5303C20.6397 21.671 20.4489 21.75 20.25 21.75H14.25C14.0511 21.75 13.8603 21.671 13.7197 21.5303C13.579 21.3897 13.5 21.1989 13.5 21V15Z"
        fill="#132A3A" />
    <path
        d="M14.25 11.25H20.25C20.8465 11.2493 21.4184 11.0121 21.8402 10.5902C22.2621 10.1684 22.4993 9.59653 22.5 9V3C22.4993 2.40347 22.2621 1.83157 21.8402 1.40976C21.4184 0.987945 20.8465 0.750675 20.25 0.75H14.25C13.6535 0.750675 13.0816 0.987945 12.6598 1.40976C12.2379 1.83157 12.0007 2.40347 12 3V9C12.0007 9.59653 12.2379 10.1684 12.6598 10.5902C13.0816 11.0121 13.6535 11.2493 14.25 11.25ZM13.5 3C13.5 2.80109 13.579 2.61032 13.7197 2.46967C13.8603 2.32902 14.0511 2.25 14.25 2.25H20.25C20.4489 2.25 20.6397 2.32902 20.7803 2.46967C20.921 2.61032 21 2.80109 21 3V9C21 9.19891 20.921 9.38968 20.7803 9.53033C20.6397 9.67098 20.4489 9.75 20.25 9.75H14.25C14.0511 9.75 13.8603 9.67098 13.7197 9.53033C13.579 9.38968 13.5 9.19891 13.5 9V3Z"
        fill="#132A3A" />
    <path
        d="M5.25 6.75H9.75C9.94891 6.75 10.1397 6.67098 10.2803 6.53033C10.421 6.38968 10.5 6.19891 10.5 6C10.5 5.80109 10.421 5.61032 10.2803 5.46967C10.1397 5.32902 9.94891 5.25 9.75 5.25H5.25C4.2558 5.25119 3.30267 5.64666 2.59966 6.34966C1.89666 7.05267 1.50119 8.0058 1.5 9V15C1.50119 15.9942 1.89666 16.9473 2.59966 17.6503C3.30267 18.3533 4.2558 18.7488 5.25 18.75H7.9395L6.21975 20.4697C6.14812 20.5389 6.09098 20.6217 6.05167 20.7132C6.01237 20.8047 5.99168 20.9031 5.99081 21.0027C5.98995 21.1023 6.00892 21.201 6.04663 21.2932C6.08434 21.3854 6.14003 21.4691 6.21045 21.5395C6.28087 21.61 6.36461 21.6657 6.45678 21.7034C6.54896 21.7411 6.64772 21.7601 6.7473 21.7592C6.84689 21.7583 6.9453 21.7376 7.0368 21.6983C7.12831 21.659 7.21106 21.6019 7.28025 21.5303L10.2794 18.5312C10.4199 18.3901 10.4988 18.1991 10.4988 18C10.4988 17.8009 10.4199 17.6099 10.2794 17.4688L7.28025 14.4697C7.1388 14.3331 6.94935 14.2575 6.7527 14.2592C6.55605 14.261 6.36794 14.3398 6.22889 14.4789C6.08983 14.6179 6.01095 14.8061 6.00924 15.0027C6.00754 15.1993 6.08313 15.3888 6.21975 15.5303L7.9395 17.25H5.25C4.65347 17.2493 4.08157 17.0121 3.65976 16.5902C3.23794 16.1684 3.00067 15.5965 3 15V9C3.00067 8.40347 3.23794 7.83157 3.65976 7.40976C4.08157 6.98794 4.65347 6.75067 5.25 6.75Z"
        fill="#132A3A" />
</svg>
    