<svg width="85" height="70" viewBox="0 0 85 70" fill="none" xmlns="http://www.w3.org/2000/svg">
    <rect opacity="0.1" x="0.0433121" y="0.437805" width="84.3031" height="69.5083" rx="34.7542"
        fill="#FF8F6B" />
    <path fill-rule="evenodd" clip-rule="evenodd"
        d="M49.1231 29.3995C49.1677 29.3174 49.1887 29.2279 49.1843 29.138H49.221C49.0638 26.0468 45.9681 23.6071 42.2027 23.6071C38.4372 23.6071 35.3415 26.0468 35.1843 29.138C35.1658 29.2245 35.1658 29.313 35.1843 29.3995H37.2525C37.271 29.313 37.271 29.2245 37.2525 29.138C37.2525 26.9167 39.4441 25.1159 42.1476 25.1159C44.8511 25.1159 47.0427 26.9167 47.0427 29.138C47.044 29.2275 47.0648 29.316 47.1039 29.3995H49.1231ZM53.639 33.014L54.7193 40.1903C55.514 44.8692 52.3227 46.7766 48.0386 46.7766H36.3908C32.0943 46.7766 28.8036 45.4593 29.6976 40.1903L30.7904 33.014C31.3492 30.3795 33.2739 29.3995 35.0745 29.3995H49.3424C51.1182 29.3995 52.9808 30.4533 53.639 33.014ZM38.1168 33.2564C38.8027 33.2564 39.3586 33.7282 39.3586 34.3102C39.3586 34.8922 38.8027 35.364 38.1168 35.364C37.431 35.364 36.8751 34.8922 36.8751 34.3102C36.8751 33.7282 37.431 33.2564 38.1168 33.2564ZM45.0087 34.3102C45.0087 34.8922 45.5646 35.364 46.2504 35.364C46.9362 35.364 47.4922 34.8922 47.4922 34.3102C47.4922 33.7282 46.9362 33.2564 46.2504 33.2564C45.5646 33.2564 45.0087 33.7282 45.0087 34.3102Z"
        fill="#FF8F6B" />
</svg>
    