<svg width="85" height="70" viewBox="0 0 85 70" fill="none" xmlns="http://www.w3.org/2000/svg">
    <rect opacity="0.1" x="0.344543" y="0.437805" width="84.3031" height="69.5083" rx="34.7542"
        fill="#5B93FF" />
    <path fill-rule="evenodd" clip-rule="evenodd"
        d="M47.9061 24.1871C48.7927 24.1871 49.6779 24.2902 50.5195 24.5231C55.7056 25.9133 57.5743 30.6051 56.0133 34.7061C55.1281 36.8017 53.6809 38.7144 51.7855 40.2771C49.0723 42.4435 46.095 44.3666 42.8901 46.0232L42.5388 46.1981L42.1735 46.0116C38.9573 44.3666 35.9632 42.4435 33.2247 40.2656C31.3419 38.7028 29.8933 36.8017 28.9941 34.7061C27.4064 30.6051 29.2751 25.9133 34.5174 24.4988C34.9248 24.3829 35.3449 24.3018 35.7665 24.2566H35.9351C36.3299 24.2091 36.7219 24.1871 37.1153 24.1871H37.2699C38.155 24.2091 39.0121 24.3366 39.8425 24.5694H39.9254C39.9816 24.5914 40.0238 24.6158 40.0519 24.6378C40.3624 24.72 40.656 24.8127 40.937 24.9401L41.471 25.1371C41.6 25.1938 41.7448 25.2805 41.8699 25.3554C41.9492 25.4029 42.0206 25.4456 42.0751 25.473C42.0981 25.4842 42.1214 25.4954 42.1449 25.5067C42.2653 25.5647 42.3908 25.6251 42.4967 25.692C44.0577 24.7084 45.9531 24.1756 47.9061 24.1871ZM51.6435 32.5281C52.2196 32.5154 52.7114 32.1343 52.7535 31.6465V31.5087C52.7957 29.8857 51.6028 28.4156 49.7889 27.8479C49.2128 27.6846 48.5805 27.9406 48.3698 28.4271C48.1731 28.9137 48.4822 29.4466 49.0723 29.6192C49.9729 29.8972 50.5757 30.6282 50.5757 31.438V31.4739C50.549 31.7392 50.646 31.9952 50.8427 32.1922C51.0394 32.3891 51.3344 32.5038 51.6435 32.5281Z"
        fill="#5B93FF" />
</svg>
    