<svg width="85" height="70" viewBox="0 0 85 70" fill="none" xmlns="http://www.w3.org/2000/svg">
    <rect opacity="0.2" x="0.289948" y="0.437988" width="84.3031" height="69.5083" rx="34.7542"
        fill="#FFD66B" />
    <path fill-rule="evenodd" clip-rule="evenodd"
        d="M46.888 27.1787C47.3307 27.1837 47.7745 27.1887 48.2198 27.1925C53.0044 27.1925 56.4929 30.005 56.4929 33.8888V38.8776C56.4929 42.7615 53.0044 45.574 48.2198 45.574C46.3032 45.6075 44.3866 45.6186 42.4562 45.6186C40.5258 45.6186 38.5816 45.6075 36.665 45.574C31.8803 45.574 28.3918 42.7615 28.3918 38.8776V33.8888C28.3918 30.005 31.8803 27.1925 36.6788 27.1925C38.4851 27.1702 40.3327 27.1478 42.208 27.1478V26.9581C42.208 26.188 41.422 25.563 40.4844 25.563H39.1193C37.5612 25.563 36.2927 24.5363 36.2927 23.2863C36.2927 22.8287 36.7615 22.4492 37.3268 22.4492C37.9059 22.4492 38.361 22.8287 38.361 23.2863C38.361 23.6211 38.7057 23.8889 39.1193 23.8889H40.4844C42.5665 23.9001 44.2625 25.2729 44.2762 26.9469V27.159C45.1455 27.159 46.0147 27.1688 46.888 27.1787ZM40.8291 37.2147H39.3813V38.3977C39.3813 38.8553 38.9125 39.2348 38.3472 39.2348C37.7681 39.2348 37.313 38.8553 37.313 38.3977V37.2147H35.8514C35.2861 37.2147 34.8173 36.8464 34.8173 36.3777C34.8173 35.9201 35.2861 35.5406 35.8514 35.5406H37.313V34.3688C37.313 33.9112 37.7681 33.5317 38.3472 33.5317C38.9125 33.5317 39.3813 33.9112 39.3813 34.3688V35.5406H40.8291C41.3944 35.5406 41.8633 35.9201 41.8633 36.3777C41.8633 36.8464 41.3944 37.2147 40.8291 37.2147ZM46.6892 35.3286H46.8271C47.3925 35.3286 47.8613 34.9603 47.8613 34.4915C47.8613 34.0339 47.3925 33.6545 46.8271 33.6545H46.6892C46.1101 33.6545 45.6551 34.0339 45.6551 34.4915C45.6551 34.9603 46.1101 35.3286 46.6892 35.3286ZM49.0471 39.1678H49.185C49.7503 39.1678 50.2191 38.7995 50.2191 38.3308C50.2191 37.8732 49.7503 37.4937 49.185 37.4937H49.0471C48.4666 37.4937 48.0129 37.8732 48.0129 38.3308C48.0129 38.7995 48.4666 39.1678 49.0471 39.1678Z"
        fill="#FFC327" />
</svg>
    