<svg width="24" height="24" viewBox="0 0 24 24" fill="none" xmlns="http://www.w3.org/2000/svg">
    <path fill-rule="evenodd" clip-rule="evenodd"
        d="M2.54619 6.46809C2.49951 6.4471 2.45989 6.41306 2.43209 6.37008C2.40429 6.3271 2.3895 6.277 2.3895 6.22581C2.3895 6.17463 2.40429 6.12453 2.43209 6.08155C2.45989 6.03857 2.49951 6.00453 2.54619 5.98354L11.4553 2.02312C11.4894 2.00788 11.5263 2 11.5637 2C11.601 2 11.6379 2.00788 11.6721 2.02312L20.5811 5.98354C20.6278 6.00453 20.6674 6.03857 20.6952 6.08155C20.723 6.12453 20.7378 6.17463 20.7378 6.22581C20.7378 6.277 20.723 6.3271 20.6952 6.37008C20.6674 6.41306 20.6278 6.4471 20.5811 6.46809L11.671 10.4285C11.637 10.4436 11.6003 10.4514 11.5631 10.4514C11.526 10.4514 11.4892 10.4436 11.4553 10.4285L2.54619 6.46809ZM2.14664 17.9891C2.10249 17.967 2.06538 17.933 2.03948 17.891C2.01357 17.8489 1.9999 17.8005 2 17.7511V8.75593C2.00002 8.71184 2.01102 8.66844 2.03201 8.62965C2.053 8.59086 2.08331 8.55791 2.12021 8.53377C2.15711 8.50962 2.19944 8.49505 2.24339 8.49135C2.28733 8.48765 2.3315 8.49495 2.37192 8.51259L10.3416 11.9991C10.4383 12.0416 10.501 12.1372 10.501 12.2435V21.7349C10.5009 21.7801 10.4893 21.8246 10.4672 21.8641C10.4451 21.9036 10.4132 21.9368 10.3747 21.9605C10.3362 21.9843 10.2922 21.9978 10.247 21.9997C10.2018 22.0017 10.1568 21.9921 10.1164 21.9719L2.14664 17.987V17.9891ZM20.9807 17.9891C21.0247 17.9671 21.0617 17.9332 21.0876 17.8914C21.1135 17.8496 21.1272 17.8014 21.1273 17.7522V8.75593C21.1273 8.71184 21.1163 8.66844 21.0953 8.62965C21.0743 8.59086 21.044 8.55791 21.0071 8.53377C20.9702 8.50962 20.9279 8.49505 20.8839 8.49135C20.84 8.48765 20.7958 8.49495 20.7554 8.51259L12.7857 11.9991C12.7382 12.0198 12.6978 12.054 12.6694 12.0974C12.6411 12.1409 12.6261 12.1916 12.6263 12.2435V21.7349C12.6264 21.7801 12.638 21.8246 12.6601 21.8641C12.6823 21.9036 12.7141 21.9368 12.7526 21.9605C12.7911 21.9843 12.8351 21.9978 12.8803 21.9997C12.9255 22.0017 12.9705 21.9921 13.011 21.9719L20.9807 17.987V17.9891Z"
        fill="white" />
</svg>
    