<svg width="19" height="18" viewBox="0 0 19 18" fill="none" xmlns="http://www.w3.org/2000/svg">
    <path
        d="M16.25 4.50002C16.25 4.27946 16.1212 4.07924 15.9201 3.98805L9.73264 1.17555C9.58487 1.10799 9.41513 1.10799 9.26736 1.17555L3.07986 3.98805C2.87881 4.07924 2.75 4.27946 2.75 4.50002C2.75 4.72057 2.87881 4.92079 3.07986 5.01198L9.26736 7.82448C9.34125 7.85826 9.42062 7.87502 9.5 7.87502C9.57938 7.87502 9.65875 7.85826 9.73264 7.82448L15.9201 5.01198C16.1212 4.92079 16.25 4.72057 16.25 4.50002Z"
        fill="#132A3A" />
    <path
        d="M8.60764 9.05057L2.42014 6.23807C2.24683 6.15924 2.04413 6.1738 1.8829 6.27707C1.72223 6.38061 1.625 6.55887 1.625 6.75003V13.5C1.625 13.7206 1.75381 13.9208 1.95486 14.012L8.14236 16.8245C8.21652 16.8583 8.2959 16.875 8.375 16.875C8.48129 16.875 8.58731 16.8448 8.6796 16.7855C8.84027 16.6819 8.9375 16.5037 8.9375 16.3125V9.56253C8.9375 9.34198 8.80869 9.14175 8.60764 9.05057Z"
        fill="#132A3A" />
    <path
        d="M17.1171 6.27705C16.9561 6.17323 16.7534 6.15895 16.5799 6.23805L10.3924 9.05055C10.1913 9.14174 10.0625 9.34196 10.0625 9.56251V16.3125C10.0625 16.5037 10.1597 16.6819 10.3204 16.7855C10.4127 16.8448 10.5187 16.875 10.625 16.875C10.7041 16.875 10.7835 16.8583 10.8576 16.8245L17.0451 14.012C17.2462 13.9208 17.375 13.7206 17.375 13.5V6.75001C17.375 6.55885 17.2778 6.3806 17.1171 6.27705Z"
        fill="#132A3A" />
</svg>
    