<svg width="24" height="24" viewBox="0 0 24 24" fill="none" xmlns="http://www.w3.org/2000/svg">
    <path
        d="M4.17739 11.6672C3.77752 11.5117 3.37765 11.334 3 11.1785V13.5555C3.22923 13.7156 3.4665 13.8639 3.71088 13.9998C6.26165 15.2147 9.06134 15.8157 11.886 15.7548C14.0987 15.7726 16.2988 15.4197 18.395 14.7107C19.2285 14.4263 20.0262 14.0461 20.772 13.5777V11.1563C17.9603 12.3377 14.9355 12.9276 11.886 12.8891C9.26607 12.9176 6.66007 12.5046 4.17739 11.6672ZM4.17739 18.0874C3.77752 17.9096 3.37765 17.7541 3 17.5542V19.7757C3.22215 19.909 3.42208 20.0645 3.66645 20.1978C6.22833 21.4308 9.04326 22.0471 11.886 21.9972C14.1506 22.0291 16.4041 21.6761 18.5505 20.9531C19.3315 20.6425 20.0764 20.2477 20.772 19.7757V17.5542C17.9619 18.7432 14.9371 19.3407 11.886 19.3092C9.2648 19.3306 6.65877 18.91 4.17739 18.0652V18.0874ZM20.1055 3.78094C17.542 2.55479 14.727 1.94613 11.886 2.00374C9.62011 1.97894 7.36651 2.33952 5.2215 3.07006C4.4414 3.37365 3.69655 3.76097 3 4.22524L3 7.13539C3.22923 7.29552 3.4665 7.44381 3.71088 7.57969C6.26139 8.79532 9.06126 9.39638 11.886 9.33467C14.0988 9.35293 16.2989 9 18.395 8.29057C19.2275 8.01325 20.0251 7.64053 20.772 7.17982V4.22524C20.5498 4.06973 20.3499 3.91423 20.1055 3.78094Z"
        fill="white" />
</svg>
    