<svg width="19" height="18" viewBox="0 0 19 18" fill="none" xmlns="http://www.w3.org/2000/svg">
    <path fill-rule="evenodd" clip-rule="evenodd"
        d="M2.62494 1.5H8.24994C8.59363 1.5 8.87506 1.78143 8.87506 2.12494V9C8.87506 9.34369 8.59363 9.62494 8.24994 9.62494H2.62494C2.28143 9.62494 2 9.34369 2 9V2.12494C2 1.78143 2.28143 1.5 2.62494 1.5ZM10.75 8.37506H16.375C16.7186 8.37506 17 8.65631 17 9V15.8751C17 16.2186 16.7186 16.5 16.375 16.5H10.75C10.4064 16.5 10.1249 16.2186 10.1249 15.8751V9C10.1249 8.65631 10.4064 8.37506 10.75 8.37506ZM8.24994 10.875H2.62494C2.28143 10.875 2 11.1564 2 11.4999V15.8751C2 16.2186 2.28143 16.5 2.62494 16.5H8.24994C8.59363 16.5 8.87506 16.2186 8.87506 15.8751V11.4999C8.87506 11.1564 8.59363 10.875 8.24994 10.875ZM10.75 1.5H16.375C16.7186 1.5 17 1.78143 17 2.12494V6.50006C17 6.84357 16.7186 7.125 16.375 7.125H10.75C10.4064 7.125 10.1249 6.84357 10.1249 6.50006V2.12494C10.1249 1.78143 10.4064 1.5 10.75 1.5Z"
        fill="#132A3A" />
</svg>
    