<svg width="19" height="18" viewBox="0 0 19 18" fill="none" xmlns="http://www.w3.org/2000/svg">
    <path
        d="M1.93994 7.84586V11.1974C3.08547 12.3314 5.69906 12.96 9.49994 12.96C13.3008 12.96 15.9144 12.3314 17.0599 11.1974V7.84586C15.8151 8.6933 13.555 9.36 9.49994 9.36C5.44491 9.36 3.18482 8.6933 1.93994 7.84586Z"
        fill="#132A3A" />
    <path
        d="M1.93994 12.1659V15.48C1.93994 17.1346 5.74297 18 9.49994 18C13.2569 18 17.0599 17.1346 17.0599 15.48V12.1659C15.8151 13.0133 13.555 13.68 9.49994 13.68C5.44491 13.68 3.18482 13.0133 1.93994 12.1659Z"
        fill="#132A3A" />
    <path
        d="M9.49994 0C5.74297 0 1.93994 0.865441 1.93994 2.52V2.55744C3.08547 3.69144 5.69906 4.32 9.49994 4.32C13.3008 4.32 15.9144 3.69144 17.0599 2.55744V2.52C17.0599 0.865441 13.2569 0 9.49994 0Z"
        fill="#132A3A" />
    <path
        d="M1.93994 3.52585V6.87743C3.08547 8.01143 5.69906 8.63999 9.49994 8.63999C13.3008 8.63999 15.9144 8.01143 17.0599 6.87743V3.52585C15.8151 4.37329 13.555 5.03999 9.49994 5.03999C5.44491 5.03999 3.18482 4.37329 1.93994 3.52585Z"
        fill="#132A3A" />
</svg>
    