<svg width="19" height="18" viewBox="0 0 19 18" fill="none" xmlns="http://www.w3.org/2000/svg">
    <path fill-rule="evenodd" clip-rule="evenodd"
        d="M15.7517 2.25009C16.0834 2.25384 16.3954 2.38506 16.6302 2.61961C16.8688 2.85861 17 3.17569 17 3.51281C17 3.83921 16.8758 4.14896 16.6502 4.38501L9.95026 11.392C9.87427 11.1566 9.77223 10.9284 9.64402 10.7129C9.22329 10.0057 8.57973 9.52227 7.82633 9.33023L14.865 2.59995C15.1015 2.3739 15.4108 2.25 15.7372 2.25L15.7517 2.25009ZM7.06725 10.1157C7.10264 10.1157 7.13806 10.1164 7.17348 10.1179C8.83449 10.1874 9.68773 12.0844 8.99551 13.4972C8.36498 14.7842 6.82435 15.2703 5.51636 15.2703C5.47435 15.2703 5.43266 15.2699 5.39117 15.2689C4.23594 15.2412 2.47423 14.7281 2 13.4747C2.81431 13.2467 3.63477 12.9124 4.16809 12.2286C4.30824 12.0489 4.42729 11.8634 4.54466 11.6806C4.78346 11.3085 5.01527 10.9474 5.40365 10.668C5.88421 10.3222 6.47331 10.1157 7.06725 10.1157Z"
        fill="#132A3A" />
</svg>
    