<svg width="20" height="20" viewBox="0 0 20 20" fill="none" xmlns="http://www.w3.org/2000/svg">
    <path fill-rule="evenodd" clip-rule="evenodd"
        d="M16.9464 2.5001C17.315 2.50426 17.6616 2.65007 17.9225 2.91068C18.1876 3.17624 18.3334 3.52855 18.3334 3.90312C18.3334 4.26579 18.1954 4.60996 17.9447 4.87223L10.5004 12.6578C10.4159 12.3962 10.3026 12.1427 10.1601 11.9033C9.69263 11.1175 8.97756 10.5803 8.14045 10.3669L15.9612 2.88883C16.224 2.63766 16.5676 2.5 16.9303 2.5L16.9464 2.5001ZM7.29702 11.2396C7.33634 11.2396 7.3757 11.2405 7.41505 11.2421C9.26063 11.3194 10.2087 13.4271 9.43953 14.9969C8.73895 16.4269 7.02713 16.9671 5.57381 16.9671C5.52713 16.9671 5.48081 16.9665 5.43472 16.9654C4.15112 16.9347 2.19367 16.3645 1.66675 14.9719C2.57153 14.7186 3.48315 14.3471 4.07573 13.5873C4.23146 13.3877 4.36374 13.1816 4.49414 12.9784C4.75948 12.565 5.01705 12.1638 5.44858 11.8533C5.98253 11.4691 6.63709 11.2396 7.29702 11.2396Z"
        fill="white" />
</svg>
    