<svg width="19" height="18" viewBox="0 0 19 18" fill="none" xmlns="http://www.w3.org/2000/svg">
    <path
        d="M2 15.6668V12.333H3.6665C3.90904 12.333 4.14864 12.28 4.36861 12.1778C4.58857 12.0756 4.7836 11.9267 4.94011 11.7414C5.09662 11.5561 5.21084 11.3389 5.27481 11.105C5.33878 10.871 5.35096 10.6259 5.3105 10.3868C5.23025 9.98858 5.01233 9.63134 4.69498 9.37776C4.37763 9.12418 3.98111 8.99045 3.575 9.00005H2V5.66705C1.9999 5.55756 2.02138 5.44913 2.06321 5.34794C2.10504 5.24676 2.1664 5.15482 2.24379 5.07736C2.32117 4.99991 2.41306 4.93847 2.51421 4.89655C2.61535 4.85462 2.72376 4.83305 2.83325 4.83305H6.167V3.16655C6.167 2.92363 6.22005 2.68365 6.32246 2.46337C6.42486 2.2431 6.57414 2.04785 6.75986 1.89127C6.94558 1.7347 7.16325 1.62058 7.39767 1.55689C7.63208 1.4932 7.87758 1.48148 8.117 1.52255C8.51414 1.6035 8.8702 1.82142 9.12299 2.13823C9.37578 2.45504 9.50922 2.8506 9.5 3.2558V4.8308H12.833C13.0542 4.8308 13.2663 4.91866 13.4227 5.07507C13.5791 5.23147 13.667 5.44361 13.667 5.6648V9.00005H15.242C15.6477 8.99099 16.0437 9.12496 16.3606 9.3785C16.6775 9.63203 16.8951 9.98897 16.9753 10.3868C17.0157 10.6259 17.0035 10.871 16.9396 11.105C16.8756 11.3389 16.7614 11.5561 16.6049 11.7414C16.4484 11.9267 16.2533 12.0756 16.0334 12.1778C15.8134 12.28 15.5738 12.333 15.3313 12.333H13.667V15.6668C13.667 15.7763 13.6454 15.8847 13.6035 15.9858C13.5616 16.087 13.5001 16.1789 13.4227 16.2563C13.3452 16.3336 13.2533 16.395 13.1521 16.4368C13.0509 16.4787 12.9425 16.5001 12.833 16.5H10.3333V14.8335C10.3333 14.5906 10.2802 14.3506 10.1778 14.1304C10.0754 13.9101 9.92611 13.7148 9.74039 13.5583C9.55468 13.4017 9.337 13.2876 9.10258 13.2239C8.86817 13.1602 8.62267 13.1485 8.38325 13.1895C7.98573 13.2706 7.62936 13.4888 7.37652 13.8061C7.12369 14.1234 6.99049 14.5195 7.00025 14.925V16.5H2.83325C2.7238 16.5001 2.6154 16.4787 2.51426 16.4368C2.41312 16.395 2.32123 16.3336 2.24383 16.2562C2.16644 16.1788 2.10507 16.0869 2.06323 15.9858C2.02139 15.8846 1.9999 15.7762 2 15.6668Z"
        fill="white" />
</svg>
    