<svg width="19" height="18" viewBox="0 0 19 18" fill="none" xmlns="http://www.w3.org/2000/svg">
    <path fill-rule="evenodd" clip-rule="evenodd"
        d="M8.95077 2.64672C9.50967 2.44347 10.153 2.42709 10.8622 2.66349C11.2551 2.79447 11.4675 3.21921 11.3365 3.61217C11.2056 4.00513 10.7808 4.2175 10.3878 4.08651C9.97205 3.94791 9.6779 3.9784 9.46332 4.0564C9.23615 4.13902 9.0344 4.29904 8.8574 4.51138C8.68025 4.72402 8.54915 4.96411 8.46132 5.15933C8.41827 5.25502 8.38767 5.33518 8.36862 5.38906C8.3591 5.41588 8.35257 5.43583 8.3489 5.44753L8.34582 5.45731L8.19507 5.99996H11C11.3229 5.99996 11.6094 6.20653 11.7115 6.51279L12.0946 7.66207C12.3137 7.39653 12.536 7.14487 12.7579 6.92548C13.036 6.65065 13.3467 6.3922 13.6858 6.21652C14.0309 6.0378 14.4468 5.92444 14.8971 6.01448C15.3033 6.09571 15.5667 6.49083 15.4854 6.897C15.4042 7.30317 15.0091 7.5666 14.6029 7.48535C14.5844 7.48165 14.52 7.47375 14.3757 7.54845C14.2257 7.62615 14.0382 7.7691 13.8124 7.9923C13.448 8.35252 13.0698 8.83222 12.6627 9.36622L13.1893 10.9462C13.2026 10.9682 13.2214 10.9977 13.245 11.0308C13.3065 11.1167 13.3796 11.1976 13.4516 11.249C13.5172 11.2959 13.5451 11.2936 13.5496 11.2932C13.5534 11.293 13.6531 11.2862 13.8447 11.0946C14.1375 10.8017 14.6124 10.8017 14.9053 11.0946C15.1983 11.3875 15.1983 11.8624 14.9053 12.1553C14.5364 12.5242 14.1201 12.7537 13.665 12.7888C13.2115 12.8236 12.8408 12.6561 12.5797 12.4696C12.3236 12.2866 12.1389 12.0628 12.0245 11.9026C11.9651 11.8195 11.9192 11.7457 11.887 11.6908C11.8709 11.6632 11.858 11.64 11.8484 11.6221C11.8435 11.6131 11.8395 11.6056 11.8363 11.5993L11.8322 11.5912L11.8305 11.588L11.8298 11.5866C11.8296 11.5863 11.8292 11.5854 12.5 11.2499L11.8292 11.5854C11.8133 11.5536 11.7997 11.5208 11.7885 11.4871L11.5563 10.7907C11.2818 11.1207 10.9995 11.431 10.7151 11.6856C10.1823 12.1627 9.37452 12.6825 8.47145 12.3213C8.08692 12.1675 7.89983 11.731 8.0537 11.3464C8.20752 10.9618 8.64395 10.7747 9.02855 10.9285C9.06305 10.9423 9.2396 10.9933 9.71457 10.5681C10.1086 10.2153 10.5282 9.69255 10.9892 9.08925L10.4595 7.49996H7.77843L6.47266 12.2007C6.46678 12.2219 6.45998 12.2428 6.45227 12.2633L5.75002 12C6.45227 12.2633 6.45237 12.2631 6.45227 12.2633L6.45183 12.2645L6.45129 12.2659L6.44988 12.2696L6.44578 12.2803C6.44247 12.2888 6.438 12.3001 6.43239 12.3141C6.42115 12.3419 6.40526 12.3802 6.38469 12.4274C6.34364 12.5215 6.28349 12.6517 6.20402 12.8039C6.04679 13.1053 5.80565 13.5094 5.47571 13.8943C4.82125 14.6578 3.68101 15.4759 2.13785 14.9615C1.7449 14.8305 1.53253 14.4058 1.66351 14.0128C1.79449 13.6198 2.21923 13.4075 2.61219 13.5385C3.31903 13.7741 3.86629 13.4671 4.33683 12.9181C4.56939 12.6468 4.75012 12.3478 4.87414 12.1101C4.9353 11.9929 4.98062 11.8945 5.00988 11.8275C5.02218 11.7993 5.03155 11.7769 5.03799 11.761L6.22164 7.49996H4.62502C4.2108 7.49996 3.87502 7.16417 3.87502 6.74996C3.87502 6.33574 4.2108 5.99996 4.62502 5.99996H6.6383L6.90386 5.04395L7.62486 5.24995C6.90387 5.04396 6.90376 5.04428 6.90386 5.04395L6.90426 5.04261L6.90472 5.04102L6.90587 5.0371L6.90906 5.02637C6.91158 5.01796 6.91493 5.00707 6.91911 4.99387C6.92749 4.96748 6.93927 4.93177 6.95467 4.88829C6.98539 4.80154 7.03101 4.68248 7.09342 4.54379C7.21651 4.27027 7.41354 3.90098 7.70511 3.55111C7.99689 3.20096 8.40447 2.84536 8.95077 2.64672Z"
        fill="white" />
</svg>
    