<svg width="19" height="18" viewBox="0 0 19 18" fill="none" xmlns="http://www.w3.org/2000/svg">
    <g clip-path="url(#clip0_1599_215145)">
        <path
            d="M13.5893 4.9893C12.3148 4.98876 11.282 3.95589 11.2816 2.68161V0H4.14615C3.38245 0.00216346 2.7637 0.620913 2.76154 1.38462V16.6154C2.7637 17.3791 3.38245 17.9978 4.14615 18H14.8861C15.65 17.9978 16.2686 17.3791 16.2707 16.6154V4.9893H13.5893ZM5.25853 7.06154H10.2477C10.5026 7.06154 10.7092 7.26815 10.7092 7.52308C10.7092 7.77801 10.5026 7.98462 10.2477 7.98462H5.25853C5.0036 7.98462 4.79699 7.77801 4.79699 7.52308C4.79699 7.26815 5.0036 7.06154 5.25853 7.06154ZM14.24 14.9677H5.25853C5.0036 14.9677 4.79699 14.7611 4.79699 14.5062C4.79699 14.2513 5.0036 14.0447 5.25853 14.0447H14.24C14.4949 14.0447 14.7015 14.2513 14.7015 14.5062C14.7015 14.7611 14.4949 14.9677 14.24 14.9677ZM14.24 11.4739H5.25853C5.0036 11.4739 4.79699 11.2671 4.79699 11.0124C4.79699 10.7575 5.0036 10.5508 5.25853 10.5508H14.24C14.4949 10.5508 14.7015 10.7575 14.7015 11.0124C14.7015 11.2671 14.4949 11.4739 14.24 11.4739Z"
            fill="#132A3A" />
        <path
            d="M13.5893 4.06626H15.6293L12.2047 0.650879V2.68165C12.2053 3.44607 12.8247 4.06554 13.5893 4.06626Z"
            fill="#132A3A" />
    </g>
    <defs>
        <clipPath id="clip0_1599_215145">
            <rect width="18" height="18" fill="white" transform="translate(0.5)" />
        </clipPath>
    </defs>
</svg>
    