<svg width="19" height="18" viewBox="0 0 19 18" fill="none" xmlns="http://www.w3.org/2000/svg">
    <path
        d="M16.7403 10.8899L15.3245 9.78274C15.3424 9.612 15.3578 9.41242 15.3578 9.20125C15.3578 8.99008 15.3431 8.79049 15.3245 8.61975L16.7416 7.51198C17.0048 7.30403 17.0767 6.93497 16.9091 6.62756L15.4368 4.08013C15.2795 3.7926 14.9349 3.64497 14.5851 3.77398L12.9144 4.44467C12.5942 4.21362 12.2585 4.01851 11.9113 3.86255L11.6571 2.09049C11.6154 1.75416 11.3227 1.5 10.9768 1.5H8.0244C7.67844 1.5 7.38643 1.75416 7.34534 2.08534L7.09054 3.86384C6.75422 4.01533 6.4237 4.20787 6.0893 4.44597L4.41414 3.77335C4.10026 3.65204 3.72479 3.78809 3.56883 4.07435L2.09458 6.62497C1.92066 6.91893 1.99253 7.30081 2.26146 7.5139L3.67732 8.62105C3.65484 8.83733 3.64395 9.0254 3.64395 9.20191C3.64395 9.37842 3.65487 9.56645 3.67732 9.7834L2.26017 10.8912C1.99701 11.0998 1.92577 11.4688 2.09329 11.7756L3.56564 14.323C3.7229 14.6099 4.06434 14.7588 4.41733 14.6291L6.08801 13.9585C6.40763 14.1889 6.7433 14.384 7.09054 14.5406L7.3447 16.312C7.3864 16.6496 7.67844 16.9038 8.02503 16.9038H10.9774C11.3234 16.9038 11.616 16.6496 11.6571 16.3184L11.9119 14.5406C12.2482 14.3885 12.5781 14.1965 12.9131 13.9578L14.5883 14.6304C14.6692 14.6618 14.7533 14.6779 14.8399 14.6779C15.0889 14.6779 15.318 14.5418 15.4336 14.33L16.9123 11.7692C17.0767 11.4688 17.0048 11.0998 16.7403 10.8899ZM9.50057 11.7692C8.08472 11.7692 6.93329 10.6177 6.93329 9.20188C6.93329 7.78603 8.08472 6.6346 9.50057 6.6346C10.9164 6.6346 12.0679 7.78603 12.0679 9.20188C12.0679 10.6177 10.9164 11.7692 9.50057 11.7692Z"
        fill="#132A3A" />
</svg>
    