<svg width="24" height="24" viewBox="0 0 24 24" fill="none" xmlns="http://www.w3.org/2000/svg">
    <path
        d="M22 10.7505V13.2526L18.66 13.8947C18.5144 14.4087 18.3095 14.9039 18.0495 15.3705L19.9568 18.1863L18.1884 19.9526L15.3674 18.0474C14.8996 18.308 14.4028 18.5129 13.8874 18.6579L13.2463 22H10.7516L10.1095 18.6632C9.59491 18.5174 9.09897 18.3126 8.63158 18.0526L5.81053 19.9579L4.04211 18.1895L5.94737 15.3747C5.68776 14.9065 5.4829 14.4099 5.33684 13.8947L2 13.2505V10.7505L5.34105 10.1053C5.48526 9.59158 5.69053 9.09474 5.95158 8.62842L4.04211 5.81053L5.81053 4.04421L8.62737 5.94947C9.09479 5.69015 9.59074 5.48597 10.1053 5.34105L10.7495 2H13.2516L13.8937 5.33895C14.4066 5.48453 14.9011 5.68868 15.3674 5.94737L18.1821 4.04211L19.9463 5.81053L18.0411 8.62842C18.3042 9.09474 18.5074 9.59053 18.6516 10.1063L21.9989 10.7589L22 10.7505ZM8.81053 13.8379C9.05216 14.2569 9.37395 14.6242 9.75753 14.9188C10.1411 15.2134 10.579 15.4296 11.0461 15.555C11.5132 15.6804 12.0005 15.7126 12.48 15.6497C12.9596 15.5868 13.4221 15.4301 13.8411 15.1884C14.26 14.9468 14.6273 14.625 14.922 14.2414C15.2166 13.8578 15.4328 13.42 15.5582 12.9529C15.6836 12.4857 15.7158 11.9985 15.6529 11.5189C15.59 11.0394 15.4332 10.5769 15.1916 10.1579C14.7036 9.31199 13.8995 8.6946 12.9563 8.44152C12.0131 8.18844 11.008 8.32042 10.1621 8.80842C9.3162 9.29642 8.69881 10.1005 8.44573 11.0437C8.19266 11.9869 8.32463 12.992 8.81263 13.8379H8.81053Z"
        fill="white" />
</svg>
    