<svg width="19" height="18" viewBox="0 0 19 18" fill="none" xmlns="http://www.w3.org/2000/svg">
    <path fill-rule="evenodd" clip-rule="evenodd"
        d="M4.6841 2.77557C4.90235 2.87147 5.07363 3.05004 5.16035 3.2721C5.24708 3.49415 5.24217 3.74153 5.1467 3.95997C4.45345 5.54965 4.09705 7.2657 4.1 8.99997C4.1 10.7937 4.4744 12.4974 5.1476 14.04C5.23457 14.2571 5.2336 14.4996 5.14488 14.716C5.05616 14.9324 4.88666 15.1058 4.6723 15.1994C4.45795 15.293 4.21556 15.2995 3.99651 15.2174C3.77746 15.1355 3.59895 14.9714 3.4988 14.76C2.70581 12.9433 2.29764 10.9821 2.3 8.99997C2.3 6.95337 2.7275 5.00397 3.4988 3.23997C3.54612 3.13163 3.61431 3.03368 3.6995 2.95171C3.78467 2.86973 3.88517 2.80535 3.99525 2.76222C4.10532 2.71909 4.2228 2.69808 4.341 2.70036C4.4592 2.70266 4.57578 2.72821 4.6841 2.77557ZM12.164 6.29997C11.7592 6.30006 11.3596 6.39118 10.9947 6.5666C10.6298 6.74202 10.3091 6.99723 10.0562 7.31337L9.76099 7.68237L9.66109 7.43127C9.52753 7.09742 9.29701 6.81124 8.99928 6.6096C8.70156 6.40797 8.35028 6.30012 7.9907 6.29997H7.7C7.4613 6.29997 7.23239 6.39479 7.0636 6.56357C6.89482 6.73235 6.8 6.96127 6.8 7.19997C6.8 7.43867 6.89482 7.66758 7.0636 7.83637C7.23239 8.00514 7.4613 8.09997 7.7 8.09997H7.9907L8.4695 9.29698L7.538 10.4625C7.45364 10.5679 7.34667 10.6528 7.225 10.7113C7.10332 10.7697 6.97007 10.8 6.8351 10.8H6.8C6.5613 10.8 6.33239 10.8947 6.1636 11.0636C5.99482 11.2323 5.9 11.4613 5.9 11.7C5.9 11.9387 5.99482 12.1676 6.1636 12.3364C6.33239 12.5051 6.5613 12.6 6.8 12.6H6.8351C7.23994 12.5999 7.63956 12.5087 8.00442 12.3333C8.36927 12.1579 8.69002 11.9027 8.9429 11.5866L9.2381 11.2176L9.338 11.4687C9.47164 11.8027 9.70231 12.089 10.0002 12.2906C10.2981 12.4922 10.6496 12.6 11.0093 12.6H11.3C11.5387 12.6 11.7676 12.5051 11.9364 12.3364C12.1052 12.1676 12.2 11.9387 12.2 11.7C12.2 11.4613 12.1052 11.2323 11.9364 11.0636C11.7676 10.8947 11.5387 10.8 11.3 10.8H11.0093L10.5305 9.60298L11.462 8.43747C11.5463 8.3321 11.6533 8.24706 11.775 8.18864C11.8967 8.13023 12.0299 8.09991 12.1649 8.09997H12.2C12.4387 8.09997 12.6676 8.00514 12.8364 7.83637C13.0052 7.66758 13.1 7.43867 13.1 7.19997C13.1 6.96127 13.0052 6.73235 12.8364 6.56357C12.6676 6.39479 12.4387 6.29997 12.2 6.29997H12.1649H12.164ZM13.8506 3.95997C13.7566 3.74146 13.7529 3.49461 13.8404 3.2734C13.9278 3.05219 14.0993 2.8746 14.3173 2.77945C14.5354 2.6843 14.7822 2.67933 15.0038 2.76562C15.2255 2.85191 15.404 3.02246 15.5003 3.23997C16.2936 5.05655 16.7021 7.01773 16.7 8.99997C16.7 11.0466 16.2725 12.996 15.5012 14.76C15.4564 14.8718 15.3896 14.9735 15.3047 15.0591C15.2198 15.1447 15.1186 15.2123 15.0071 15.258C14.8956 15.3038 14.7761 15.3266 14.6555 15.3253C14.535 15.3239 14.416 15.2984 14.3055 15.2501C14.1951 15.2019 14.0955 15.1319 14.0126 15.0445C13.9297 14.957 13.8652 14.8538 13.8229 14.7409C13.7807 14.628 13.7615 14.5079 13.7665 14.3875C13.7716 14.267 13.8008 14.1489 13.8524 14.04C14.546 12.4504 14.9027 10.7343 14.9 8.99997C14.9 7.20627 14.5256 5.50257 13.8515 3.95997H13.8506Z"
        fill="#132A3A" />
</svg>
    