<svg width="19" height="18" viewBox="0 0 19 18" fill="none" xmlns="http://www.w3.org/2000/svg">
    <g clip-path="url(#clip0_1599_215172)">
        <path d="M18.5 12.7266H13.2266V18H18.5V12.7266Z" fill="white" />
        <path
            d="M17.4453 2.10938H5.77344V0H0.5V5.27344H5.77344V3.16406H17.4453V8.47266H14.4409V7.39839L12.8398 8.99989L14.4409 10.6018V9.52734H17.4453C18.0269 9.52734 18.5 9.05421 18.5 8.47266V3.16406C18.5 2.58251 18.0269 2.10938 17.4453 2.10938Z"
            fill="white" />
        <path
            d="M12.5234 15.3632L10.9224 13.7617V14.8359H1.58984V9.52734H6.86328V11.6367H12.1367V6.36328H6.86328V8.47266H1.58984C1.00829 8.47266 0.535156 8.94579 0.535156 9.52734V14.8359C0.535156 15.4175 1.00829 15.8906 1.58984 15.8906H10.9224V16.965L12.5234 15.3632Z"
            fill="white" />
    </g>
    <defs>
        <clipPath id="clip0_1599_215172">
            <rect width="18" height="18" fill="#132A3A" transform="translate(0.5)" />
        </clipPath>
    </defs>
</svg>
    